# File created by Blade
# Date/Time:  Tue Apr 07 21:12:38 2015
# Frame Rate: 120.000 fps
#------------------------------------------------------
:FULLY-SPECIFIED
:DEGREES
849
root 6.594125 28.943895 10.020226 741.696680 -72.521489 -529.282323
Spine -39.850582 -14.760793 5.651689
Head -78.614502 -1.371757 6.686765
LeftShoulder -10.414276 -4.810577 37.732485
LeftArm 155.555485 -32.749988 -132.555633
LeftForeArm 31.514343 -0.000000 115.049083
LeftHand -11.963376 -0.000000 -4.436847
LeftHandThumb1 -26.253704 0.000000 33.147579
RightShoulder -22.582064 57.350705 -59.062550
RightArm 82.399057 51.019283 92.611393
RightForeArm -29.433332 -0.000000 122.436152
RightHand -7.406710 -0.000000 14.150918
RightHandThumb1 -24.326973 -0.000000 -32.862282
LeftUpLeg 5.023842 -3.026561 12.769341
LeftLeg 15.677289 -0.000000 -0.000000
LeftFoot 39.621545 8.200703 0.152313
LeftToeBase 97.115750 -0.000000 -0.000000
RightUpLeg -120.530091 -20.622264 2.593369
RightLeg 32.555768 -0.000000 -0.000000
RightFoot 26.005444 -10.146653 0.487231
RightToeBase 21.408884 -0.000000 -0.000000
850
root 6.591120 28.940304 10.030582 740.943782 -72.465089 -528.197567
Spine -40.103997 -15.002539 5.420137
Head -78.627279 -1.306248 6.802100
LeftShoulder -10.437974 -4.509628 37.837478
LeftArm 156.064658 -32.657241 -132.876230
LeftForeArm 31.431783 -0.000000 114.974577
LeftHand -12.203176 -0.000000 -4.813549
LeftHandThumb1 -26.253704 0.000000 33.147579
RightShoulder -22.525529 57.266823 -58.959558
RightArm 82.753871 51.181570 92.862740
RightForeArm -29.447975 -0.000000 122.339455
RightHand -7.466859 -0.000000 14.109810
RightHandThumb1 -24.326973 -0.000000 -32.862282
LeftUpLeg 5.456577 -3.483784 12.787634
LeftLeg 15.670482 -0.000000 -0.000000
LeftFoot 39.453956 8.284158 0.388613
LeftToeBase 97.446380 -0.000000 -0.000000
RightUpLeg -120.803948 -20.755333 2.573993
RightLeg 33.268758 -0.000000 -0.000000
RightFoot 26.385863 -10.415561 0.610746
RightToeBase 22.179786 -0.000000 -0.000000
851
root 6.588656 28.939245 10.039739 740.158473 -72.361635 -527.163456
Spine -40.273944 -15.236778 5.179762
Head -78.723990 -1.335809 7.086801
LeftShoulder -10.337372 -4.109268 37.877883
LeftArm 156.759290 -32.559169 -133.293171
LeftForeArm 31.492980 -0.000000 114.925004
LeftHand -12.353752 0.000000 -4.954586
LeftHandThumb1 -26.253704 0.000000 33.147579
RightShoulder -22.542374 57.235245 -58.973026
RightArm 82.921127 51.335764 92.962851
RightForeArm -29.582766 -0.000000 122.293333
RightHand -7.518659 -0.000000 14.143765
RightHandThumb1 -24.326973 -0.000000 -32.862282
LeftUpLeg 5.941213 -4.022602 12.823527
LeftLeg 15.703244 -0.000000 -0.000000
LeftFoot 39.257264 8.469411 0.328168
LeftToeBase 97.924448 -0.000000 -0.000000
RightUpLeg -121.030641 -20.924092 2.601357
RightLeg 33.957926 -0.000000 -0.000000
RightFoot 26.825762 -10.589710 0.665160
RightToeBase 22.658647 -0.000000 -0.000000
852
root 6.586420 28.938388 10.048116 739.245630 -72.259562 -526.074952
Spine -40.306760 -15.484557 4.849148
Head -78.748867 -1.313035 7.077078
LeftShoulder -10.416022 -3.995205 38.018686
LeftArm 156.960024 -32.512073 -133.436122
LeftForeArm 31.591370 0.000000 114.976954
LeftHand -12.544594 -0.000000 -4.555827
LeftHandThumb1 -26.253704 0.000000 33.147579
RightShoulder -22.720704 57.196338 -59.062458
RightArm 83.051137 51.467308 93.056631
RightForeArm -29.696357 -0.000000 122.266241
RightHand -7.622885 0.000000 14.174586
RightHandThumb1 -24.326973 -0.000000 -32.862282
LeftUpLeg 6.460293 -4.562085 12.815463
LeftLeg 15.816641 -0.000000 -0.000000
LeftFoot 39.054501 8.419415 0.490378
LeftToeBase 98.380829 -0.000000 -0.000000
RightUpLeg -121.203594 -21.055710 2.668128
RightLeg 34.578600 -0.000000 -0.000000
RightFoot 27.365256 -10.762480 0.563615
RightToeBase 22.915750 -0.000000 -0.000000
853
root 6.582206 28.934261 10.053253 738.419670 -72.152879 -525.062373
Spine -40.355280 -15.731409 4.533385
Head -78.754932 -1.295671 7.162133
LeftShoulder -10.645252 -4.690367 38.266662
LeftArm 156.106777 -32.937791 -132.932423
LeftForeArm 31.710339 -0.000000 115.138085
LeftHand -12.558282 -0.000000 -4.884902
LeftHandThumb1 -26.253704 0.000000 33.147579
RightShoulder -22.773939 57.097568 -59.008990
RightArm 83.327256 51.601581 93.208315
RightForeArm -29.803927 -0.000000 122.261971
RightHand -7.764376 -0.000000 14.266698
RightHandThumb1 -24.326973 -0.000000 -32.862282
LeftUpLeg 6.905434 -5.088727 12.829552
LeftLeg 16.026370 -0.000000 -0.000000
LeftFoot 38.850298 8.431454 0.317664
LeftToeBase 99.017850 -0.000000 -0.000000
RightUpLeg -121.389921 -21.167958 2.789221
RightLeg 35.156548 -0.000000 -0.000000
RightFoot 27.816262 -10.796044 0.422721
RightToeBase 23.458831 -0.000000 -0.000000
854
root 6.576014 28.925386 10.060737 737.536516 -72.025984 -524.037392
Spine -40.343009 -15.975715 4.197601
Head -78.847622 -1.305798 7.414041
LeftShoulder -10.663189 -4.730042 38.375238
LeftArm 156.151602 -33.098363 -132.921997
LeftForeArm 31.944475 -0.000000 115.318960
LeftHand -12.816185 -0.000000 -5.315246
LeftHandThumb1 -26.253704 0.000000 33.147579
RightShoulder -22.996477 57.043369 -59.089348
RightArm 83.394773 51.660604 93.236265
RightForeArm -29.837862 -0.000000 122.301682
RightHand -7.853001 -0.000000 14.378049
RightHandThumb1 -24.326973 -0.000000 -32.862282
LeftUpLeg 7.349320 -5.635926 12.818953
LeftLeg 16.277468 -0.000000 -0.000000
LeftFoot 38.734446 8.436145 0.029848
LeftToeBase 99.427458 -0.000000 -0.000000
RightUpLeg -121.519925 -21.296404 2.864325
RightLeg 35.724648 -0.000000 -0.000000
RightFoot 28.178047 -10.784130 0.147549
RightToeBase 24.042535 -0.000000 -0.000000
855
root 6.567161 28.911761 10.065174 736.765900 -71.895712 -523.081942
Spine -40.399883 -16.200584 3.895556
Head -78.876054 -1.322293 7.476340
LeftShoulder -10.629403 -4.404378 38.364038
LeftArm 156.502255 -33.065355 -133.011539
LeftForeArm 32.094799 0.000000 115.565707
LeftHand -13.232628 -0.000000 -5.452503
LeftHandThumb1 -26.253704 0.000000 33.147579
RightShoulder -23.167554 57.011960 -59.127547
RightArm 83.324940 51.707522 93.095374
RightForeArm -29.921317 -0.000000 122.371199
RightHand -7.990608 0.000000 14.456092
RightHandThumb1 -24.326973 -0.000000 -32.862282
LeftUpLeg 7.698612 -6.084470 12.822639
LeftLeg 16.595019 -0.000000 -0.000000
LeftFoot 38.715952 7.937231 0.282809
LeftToeBase 99.874789 -0.000000 -0.000000
RightUpLeg -121.694339 -21.423229 2.992834
RightLeg 36.257207 -0.000000 -0.000000
RightFoot 28.438333 -10.702909 0.088631
RightToeBase 24.593930 -0.000000 -0.000000
